<?xml version="1.0" encoding="UTF-8" standalone="no"?>
<!-- Created with Inkscape (http://www.inkscape.org/) -->

<svg
   width="837.42"
   height="295.77"
   version="1.1"
   viewBox="0 0 837.42 295.77"
   id="svg3"
   sodipodi:docname="picpitch-logo.svg"
   inkscape:version="1.4 (86a8ad7, 2024-10-11)"
   xmlns:inkscape="http://www.inkscape.org/namespaces/inkscape"
   xmlns:sodipodi="http://sodipodi.sourceforge.net/DTD/sodipodi-0.dtd"
   xmlns="http://www.w3.org/2000/svg"
   xmlns:svg="http://www.w3.org/2000/svg">
  <defs
     id="defs3" />
  <sodipodi:namedview
     id="namedview3"
     pagecolor="#ffffff"
     bordercolor="#000000"
     borderopacity="0.25"
     inkscape:showpageshadow="2"
     inkscape:pageopacity="0.0"
     inkscape:pagecheckerboard="0"
     inkscape:deskcolor="#d1d1d1"
     inkscape:zoom="0.74728274"
     inkscape:cx="331.19994"
     inkscape:cy="154.55997"
     inkscape:window-width="1920"
     inkscape:window-height="1009"
     inkscape:window-x="-8"
     inkscape:window-y="-8"
     inkscape:window-maximized="1"
     inkscape:current-layer="g3" />
  <g
     transform="translate(-99.095 -327.81)"
     id="g3">
    <g
       id="g2"
       style="fill:#5d5cde;fill-opacity:1">
      <path
         d="m117.84 378.94c-15.034 8.8174-20.876 20.762-18.062 36.923 0.57968 3.3287 11.492 33.427 25.699 70.883 3.2626 8.6017 5.206 13.555 7.8346 20.423l16.495-9.6747c-34.544-89.33-34.023-87.584-30.6-95.049 3.4085-6.44 7.7896-8.6734 52.162-26.592 59.11-23.871 71.805-28.837 75.154-29.406 6.6145-1.1237 14.766 2.969 18.528 9.3032 0.98141 1.6524 12.076 30.06 23.716 60.243l16.234-9.5215c-17.367-45.353-21.146-54.436-25.369-61.071-4.5281-7.1152-5.8975-8.5808-11.395-12.205-10.303-6.7925-21.761-7.1346-37.919-1.1296-22.044 8.1925-106.62 43.439-112.48 46.874z"
         id="path1"
         style="fill:#5d5cde;fill-opacity:1" />
      <path
         d="m273 623.36c-1.375-0.27359-27.475-4.2891-58-8.9234-30.525-4.6343-57.75-8.9351-60.5-9.5574-12.671-2.867-23.28-11.564-27.605-22.628-4.358-11.149-3.6558-18.261 9.4185-95.392 6.6951-39.497 12.51-70.98 13.694-74.145 5.7484-15.364 16.831-22.71 34.259-22.71 6.7889 0 97.574 12.385 120.73 16.47 16.975 2.9946 26.687 9.0863 32.138 20.158 2.9083 5.9077 3.3472 7.8647 3.6533 16.293 0.30844 8.4908-0.91369 17.133-10.759 76.079-6.109 36.575-11.76 69.317-12.557 72.759-4.3964 18.978-17.17 30.668-34.606 31.67-4.0529 0.23306-8.4939 0.1999-9.8689-0.0737zm17.739-20.994c3.5966-2.632 6.979-7.6942 8.2525-12.244 1.7346-6.1966 24.009-141.45 23.986-145.65-0.0407-7.3672-5.0013-15.022-11.275-17.399-3.1761-1.2034-16.638-3.3409-79.703-12.655-47.34-6.9918-52.434-7.5662-58.447-3.451-6.8894 4.715-5.7785-0.23877-23.525 108.66-3.8655 23.721-7.0282 45.292-7.0282 47.934 0 6.3237 3.2547 12.915 7.8932 15.984 4.1794 2.7658 5.5774 3.0205 76.922 14.016 50.956 7.8534 57.393 8.8441 62.924 4.7969zm-55.739-17.953c-76.319-12.209-76.916-12.325-80.065-15.474-2.516-2.516-2.5042-7.8992 0.0284-12.863 4.3233-8.4744 23.264-29.801 30.25-34.06 1.8078-1.1022 4.9744-2.0057 7.0369-2.0077 3.049-3e-3 4.5035 0.74974 7.7808 4.027l4.0308 4.0308 17.719-17.835c26.521-26.694 36.505-32.486 43.915-25.477 3.0566 2.8917 22.956 38.43 26.935 48.103 1.3556 3.2957 2.3277 7.7282 2.3348 10.647 0.0149 6.1254-5.389 38.556-6.8928 41.366-3.545 6.6239-9.1085 6.576-53.072-0.45709z"
         id="path2"
         style="fill:#5d5cde;fill-opacity:1" />
      <circle
         cx="203.79"
         cy="455.26"
         r="19.617"
         fill-rule="evenodd"
         id="circle2"
         style="fill:#5d5cde;fill-opacity:1" />
    </g>
    <text
       x="656.30688"
       y="539.63446"
       fill="#000000"
       font-family="Inter"
       font-size="146.67px"
       font-weight="600"
       stroke-dasharray="5, 20"
       stroke-linecap="square"
       stroke-linejoin="round"
       stroke-width="5"
       text-align="center"
       text-anchor="middle"
       style="line-height:1.1;fill:#5d5cde;fill-opacity:1"
       xml:space="preserve"
       id="text2"><tspan
         x="656.30688"
         y="539.63446"
         font-family="Inter"
         font-size="146.67px"
         font-weight="600"
         id="tspan2"
         style="fill:#5d5cde;fill-opacity:1">PicPitch</tspan></text>
  </g>
</svg>
